<svg width="621" height="878" viewBox="0 0 621 878" fill="none" xmlns="http://www.w3.org/2000/svg">
<g clip-path="url(#clip0_25_564)">
<path d="M530.011 348.59C526.561 345.144 522.464 342.41 517.956 340.545C513.447 338.68 508.615 337.72 503.735 337.72C498.855 337.72 494.023 338.68 489.515 340.545C485.006 342.41 480.91 345.144 477.459 348.59C474.009 352.037 471.272 356.128 469.404 360.631C467.537 365.134 466.575 369.96 466.575 374.834C466.575 379.708 467.537 384.534 469.404 389.037C471.272 393.54 474.009 397.631 477.459 401.078C516.102 439.567 540.227 490.22 545.743 544.447C551.26 598.675 537.828 653.139 507.725 698.604C477.623 744.069 432.702 777.736 380.582 793.896C328.462 810.056 272.35 807.714 221.761 787.267C171.172 766.821 129.221 729.528 103.021 681.714C76.8212 633.899 67.9855 578.505 78.0122 524.926C88.039 471.347 116.311 422.881 158.034 387.746C199.757 352.611 252.363 332.971 306.931 332.155C325.37 336.554 344.259 338.796 363.217 338.835H363.249C395.036 338.938 426.528 332.739 455.9 320.599C485.272 308.459 511.94 290.618 534.359 268.11C564.32 238.026 585.868 200.627 596.857 159.638C607.845 118.649 607.891 75.4998 596.989 34.4878C595.307 28.1721 591.984 22.4128 587.355 17.7936C582.727 13.1745 576.958 9.85986 570.633 8.18574C550.166 2.74571 529.076 -0.0078619 507.897 -0.00546026C476.106 -0.10294 444.612 6.09879 415.237 18.2407C385.862 30.3826 359.19 48.2235 336.766 70.7306C312.054 95.5547 293.011 125.425 280.946 158.291C268.88 191.158 264.078 226.243 266.867 261.138C197.7 271.033 133.904 303.964 85.8177 354.596C37.7312 405.228 8.17101 470.594 1.92687 540.102C-4.31726 609.609 13.1206 679.187 51.4148 737.559C89.709 795.932 146.616 839.68 212.914 861.714C279.213 883.749 351.019 882.779 416.696 858.962C482.374 835.144 538.075 789.875 574.775 730.489C611.474 671.103 627.022 601.08 618.898 531.767C610.773 462.453 579.451 397.905 530.011 348.59ZM389.289 123.234C404.832 107.642 423.317 95.2825 443.674 86.8719C464.031 78.4613 485.856 74.1662 507.886 74.235C515.107 74.2328 522.321 74.6932 529.483 75.6135C532.728 101.042 530.121 126.874 521.86 151.144C513.599 175.414 499.902 197.481 481.812 215.665C466.275 231.254 447.794 243.61 427.442 252.016C407.09 260.421 385.27 264.71 363.246 264.634C356.022 264.64 348.805 264.183 341.639 263.267C338.386 237.843 340.987 212.013 349.245 187.746C357.503 163.479 371.198 141.412 389.289 123.234Z" fill="url(#paint0_linear_25_564)"/>
</g>
<defs>
<linearGradient id="paint0_linear_25_564" x1="527.094" y1="-0.000556006" x2="211.953" y2="877.136" gradientUnits="userSpaceOnUse">
<stop offset="0.229167" stop-color="#ADC178"/>
<stop offset="1" stop-color="#EC984B"/>
</linearGradient>
<clipPath id="clip0_25_564">
<rect width="621" height="878" fill="white"/>
</clipPath>
</defs>
</svg>
